<?xml version="1.0" encoding="UTF-8"?>
<svg version="1.1" xmlns="http://www.w3.org/2000/svg" width="256" height="256">
<path d="M0 0 C1.51513094 -0.00958323 1.51513094 -0.00958323 3.06087059 -0.01936007 C6.449831 -0.03463613 9.83762729 -0.01413045 13.22654724 0.00622559 C15.65426522 0.00272522 18.08198091 -0.00293239 20.50968933 -0.0105896 C26.42139069 -0.02337609 32.33277963 -0.01288504 38.24443073 0.00852364 C45.12781086 0.03253644 52.01111233 0.03081914 58.89452504 0.02821773 C71.17502958 0.02452777 83.45537225 0.04535195 95.73582458 0.07946777 C107.65448598 0.11256626 119.57297753 0.12672484 131.49168396 0.1204834 C144.46929202 0.11372088 157.44682894 0.11617512 170.4244265 0.1358428 C171.11052 0.13688229 171.79661351 0.13792177 172.50349773 0.13899276 C173.88150392 0.14108366 175.25951009 0.14319463 176.63751622 0.14532593 C181.43671077 0.15222385 186.2358834 0.15289046 191.03508186 0.15144348 C197.49227471 0.1498543 203.94930661 0.16473624 210.40644836 0.19067001 C212.78005931 0.19784862 215.1536919 0.19990734 217.52731133 0.19655228 C220.75980431 0.1928539 223.99169722 0.20752823 227.22412109 0.22705078 C228.17012336 0.22172286 229.11612562 0.21639493 230.09079462 0.21090555 C233.52567839 0.24685753 236.38078242 0.38612309 239.63127136 1.5316391 C242.096527 5.1666862 241.5925042 9.17354256 241.54977417 13.45300293 C241.55530857 14.4743376 241.56084296 15.49567226 241.56654507 16.54795647 C241.58021058 19.9867641 241.56514996 23.42485334 241.55027771 26.86364746 C241.55405873 29.32224843 241.55955696 31.78084727 241.56665039 34.23944092 C241.57919507 40.233949 241.57301335 46.22817316 241.55797481 52.22265387 C241.54113573 59.19976625 241.5443223 66.17682594 241.54806889 73.15395236 C241.55395082 85.60084642 241.53976289 98.0476394 241.51512146 110.49450684 C241.49119968 122.5791808 241.48411675 134.6637197 241.49461365 146.74841309 C241.50601671 159.89995205 241.50796051 173.05142849 241.49351555 186.20296669 C241.49198967 187.60469182 241.49046932 189.00641695 241.48895454 190.40814209 C241.48819673 191.09786256 241.48743892 191.78758302 241.48665814 192.49820411 C241.48191056 197.36447379 241.48377009 202.2307156 241.48801994 207.09698486 C241.49345413 213.64360364 241.4827294 220.19006199 241.46106529 226.73665619 C241.45548362 229.14455278 241.45504468 231.55246737 241.46001816 233.9603653 C241.46593918 237.23709347 241.45352682 240.51324125 241.43624878 243.78991699 C241.44526385 245.23284528 241.44526385 245.23284528 241.45446104 246.70492363 C241.44180113 248.01738154 241.44180113 248.01738154 241.42888546 249.35635376 C241.42785633 250.11302904 241.4268272 250.86970432 241.42576689 251.64930916 C240.93857209 254.19656866 240.10940516 255.08212086 238.04856873 256.62145996 C235.49567726 256.90190924 233.19075731 257.00079048 230.63963318 256.96203613 C229.87603328 256.96239774 229.11243338 256.96275934 228.32569408 256.9631319 C225.85414593 256.96089285 223.38327669 256.93804846 220.91184998 256.91442871 C219.3859337 256.91001782 217.86001291 256.90695731 216.33409119 256.90527344 C210.67634781 256.88954528 205.0187016 256.84766161 199.36106873 256.80895996 C186.71794373 256.74708496 174.07481873 256.68520996 161.04856873 256.62145996 C161.04856873 223.29145996 161.04856873 189.96145996 161.04856873 155.62145996 C171.93856873 155.62145996 182.82856873 155.62145996 194.04856873 155.62145996 C193.97052656 149.29570859 193.97052656 149.29570859 193.86839294 142.97033691 C193.82268071 135.46394543 194.86835821 129.29282831 196.04856873 121.62145996 C184.49856873 121.62145996 172.94856873 121.62145996 161.04856873 121.62145996 C160.24725769 116.81359375 159.85975385 112.35519356 159.81028748 107.51989746 C159.80221573 106.76101227 159.79414398 106.00212708 159.78582764 105.22024536 C159.77206898 103.62516514 159.76131053 102.03005649 159.75340271 100.43493652 C159.74182064 98.80561685 159.72127185 97.17633691 159.69187927 95.54724121 C159.64929937 93.1836999 159.63305563 90.82127408 159.62278748 88.45739746 C159.60527939 87.73128265 159.5877713 87.00516785 159.56973267 86.25704956 C159.58467928 82.77754998 159.77544359 80.96877198 161.95677185 78.19494629 C163.93143335 76.70957125 165.54102242 75.75141009 167.86106873 74.93395996 C168.48626404 74.70321777 169.11145935 74.47247559 169.75559998 74.23474121 C176.29687672 72.48520041 182.77455363 72.49663757 189.48606873 72.55895996 C192.64169373 72.57958496 195.79731873 72.60020996 199.04856873 72.62145996 C199.04856873 63.05145996 199.04856873 53.48145996 199.04856873 43.62145996 C170.7113085 43.99489317 170.7113085 43.99489317 144.04856873 52.62145996 C143.27642029 52.96692871 142.50427185 53.31239746 141.70872498 53.66833496 C135.3162735 56.95384075 133.3472431 62.05005878 131.04856873 68.62145996 C130.60384216 69.83769043 130.60384216 69.83769043 130.15013123 71.07849121 C125.82505127 84.67465839 125.88038437 99.94186076 125.38987732 114.08190918 C125.14958761 120.52044107 125.14958761 120.52044107 124.04856873 121.62145996 C121.60272886 121.78124799 119.18103325 121.88083141 116.73216248 121.93786621 C116.08444885 121.95651733 115.43673523 121.97516846 114.76939392 121.99438477 C112.34176221 122.06286261 109.91389824 122.12289613 107.48606873 122.18395996 C102.06169373 122.32833496 96.63731873 122.47270996 91.04856873 122.62145996 C91.04856873 133.51145996 91.04856873 144.40145996 91.04856873 155.62145996 C101.93856873 155.62145996 112.82856873 155.62145996 124.04856873 155.62145996 C124.04856873 188.95145996 124.04856873 222.28145996 124.04856873 256.62145996 C90.06415465 256.70206603 90.06415465 256.70206603 75.8513031 256.71911621 C66.02763284 256.73099543 56.20399681 256.74497994 46.38035583 256.77233887 C39.22667567 256.79225246 32.07302322 256.80517157 24.91931611 256.80963695 C21.13031066 256.81224778 17.34138449 256.81839809 13.5524044 256.83292007 C9.98773603 256.84647195 6.42317977 256.85068748 2.85848808 256.84767532 C0.92316638 256.84848985 -1.01214306 256.85926401 -2.94743347 256.87030029 C-4.09588242 256.86755096 -5.24433136 256.86480164 -6.42758179 256.86196899 C-7.92779987 256.86473437 -7.92779987 256.86473437 -9.45832539 256.86755562 C-11.95143127 256.62145996 -11.95143127 256.62145996 -14.95143127 254.62145996 C-15.3297801 252.78222102 -15.3297801 252.78222102 -15.33454132 250.50060558 C-15.34359796 249.63234148 -15.3526546 248.76407738 -15.36198568 247.86950225 C-15.35665776 246.9098924 -15.35132983 245.95028256 -15.34584045 244.96159363 C-15.35193156 243.94660807 -15.35802266 242.93162251 -15.36429834 241.88587981 C-15.38103411 238.46258592 -15.37613743 235.03965969 -15.37135315 231.61633301 C-15.37868742 229.17097585 -15.38727175 226.72562217 -15.39701843 224.28027344 C-15.41699399 218.31376147 -15.42261114 212.3473957 -15.42083055 206.38086327 C-15.41952451 201.53158961 -15.42331896 196.68234633 -15.43075562 191.83307838 C-15.43285475 190.43786186 -15.43495235 189.04264534 -15.43704844 187.64742881 C-15.43809196 186.95304455 -15.43913549 186.25866029 -15.44021064 185.54323409 C-15.45912858 172.39940973 -15.45805836 159.25564115 -15.45124131 146.11180881 C-15.44566739 134.08425368 -15.46648197 122.05691166 -15.49960178 110.02940633 C-15.53332766 97.68617504 -15.54850832 85.34304585 -15.54388475 72.9997676 C-15.54163858 66.06735451 -15.54690423 59.13513829 -15.57177734 52.20276451 C-15.59496952 45.68318805 -15.59222106 39.16398134 -15.57184982 32.64437103 C-15.56842792 30.24859335 -15.57357923 27.85278614 -15.5878334 25.45704842 C-15.60592438 22.19160108 -15.59335094 18.92767719 -15.57289124 15.66227722 C-15.58540908 14.70935954 -15.59792693 13.75644186 -15.61082411 12.77464789 C-15.55359916 8.52792109 -15.31059442 6.2001882 -13.03455448 2.53275013 C-8.64937272 -0.18571236 -5.06956049 -0.06724084 0 0 Z " fill="#FFFFFF" transform="translate(14.951431274414063,-0.6214599609375)"/>
</svg>
