<?xml version="1.0" encoding="UTF-8"?>
<svg version="1.1" xmlns="http://www.w3.org/2000/svg" width="256" height="256">
<path d="M0 0 C1.37628733 -0.00571656 2.75256992 -0.01268574 4.12884521 -0.02079773 C7.83576382 -0.03860701 11.54244412 -0.03758352 15.24939251 -0.03185534 C18.36017851 -0.02874423 21.47091999 -0.03487747 24.58169961 -0.04089409 C31.93080685 -0.05489893 39.27979775 -0.05341316 46.62890625 -0.04199219 C54.17193812 -0.03052774 61.71461372 -0.04456755 69.25759864 -0.07138866 C75.76758035 -0.0936569 82.27745116 -0.1001578 88.78746819 -0.09431225 C92.66058149 -0.09096634 96.53346683 -0.09319732 100.40654755 -0.11056328 C104.05444786 -0.12620812 107.70182752 -0.1218866 111.34970856 -0.10325813 C113.2993098 -0.09790689 115.24893544 -0.1119537 117.19848633 -0.12695312 C129.98570839 -0.02211959 141.60738327 3.19348735 153.07910156 8.84155273 C153.87574219 9.21086914 154.67238281 9.58018555 155.49316406 9.96069336 C160.13637421 12.19330357 163.51089009 14.4734175 166.95410156 18.40405273 C167.52773437 19.04084961 168.10136719 19.67764648 168.69238281 20.33374023 C180.72640052 35.20456113 186.58670326 51.70437005 186.48754883 70.85058594 C186.49463047 72.23392648 186.50338476 73.6172593 186.51365662 75.00057983 C186.53591334 78.71371378 186.5332668 82.42641674 186.52433515 86.13959146 C186.51917631 89.26029235 186.5265573 92.38091567 186.53380722 95.50160855 C186.55073209 102.87532937 186.54731707 110.2488429 186.53051758 117.62255859 C186.51361513 125.18216576 186.52942156 132.74119462 186.56174046 140.30073863 C186.5885967 146.83460878 186.59566916 153.36830071 186.58722538 159.90222043 C186.58234109 163.78545708 186.58426284 167.66834666 186.60501289 171.55153847 C186.75320336 202.39763288 186.75320336 202.39763288 180.95410156 216.40405273 C180.55736237 217.39929459 180.16062317 218.39453644 179.75186157 219.41993713 C172.6919921 236.42845961 161.67837556 244.34931032 145.29003906 251.71264648 C135.45645755 255.68701091 126.48830989 256.84576519 115.90820312 256.80810547 C114.5319158 256.81382203 113.1556332 256.82079121 111.77935791 256.8289032 C108.0724393 256.84671248 104.365759 256.84568899 100.65881062 256.83996081 C97.54802462 256.8368497 94.43728314 256.84298294 91.32650352 256.84899956 C83.97739628 256.8630044 76.62840538 256.86151863 69.27929688 256.85009766 C61.73626501 256.83863321 54.19358941 256.85267302 46.65060449 256.87949413 C40.14062277 256.90176237 33.63075196 256.90826327 27.12073493 256.90241772 C23.24762164 256.89907181 19.37473629 256.90130279 15.50165558 256.91866875 C11.85375527 256.93431359 8.2063756 256.92999207 4.55849457 256.9113636 C2.60889332 256.90601236 0.65926769 256.92005916 -1.2902832 256.93505859 C-14.07750527 256.83022506 -25.69918014 253.61461812 -37.17089844 247.96655273 C-37.96753906 247.59723633 -38.76417969 247.22791992 -39.58496094 246.84741211 C-44.22817108 244.6148019 -47.60268697 242.33468797 -51.04589844 238.40405273 C-51.61953125 237.76725586 -52.19316406 237.13045898 -52.78417969 236.47436523 C-64.8181974 221.60354434 -70.67850014 205.10373542 -70.5793457 185.95751953 C-70.58642734 184.57417898 -70.59518164 183.19084617 -70.60545349 181.80752563 C-70.62771022 178.09439169 -70.62506368 174.38168873 -70.61613202 170.66851401 C-70.61097318 167.54781312 -70.61835418 164.4271898 -70.62560409 161.30649692 C-70.64252896 153.9327761 -70.63911394 146.55926257 -70.62231445 139.18554688 C-70.605412 131.62593971 -70.62121843 124.06691085 -70.65353733 116.50736684 C-70.68039357 109.97349669 -70.68746604 103.43980476 -70.67902225 96.90588504 C-70.67413797 93.02264839 -70.67605971 89.13975881 -70.69680977 85.256567 C-70.84500023 54.41047259 -70.84500023 54.41047259 -65.04589844 40.40405273 C-64.45078964 38.91118996 -64.45078964 38.91118996 -63.84365845 37.38816833 C-56.78378898 20.37964586 -45.77017243 12.45879515 -29.38183594 5.09545898 C-19.54825443 1.12109456 -10.58010677 -0.03765972 0 0 Z M-32.85839844 40.09155273 C-43.18988748 52.95121792 -44.48759818 69.33631973 -44.55761719 85.22045898 C-44.5746924 86.71500538 -44.59299257 88.20953821 -44.61242676 89.70405579 C-44.66009166 93.64806517 -44.69027984 97.59201093 -44.71606064 101.53621674 C-44.74516159 105.6154591 -44.78882935 109.69455007 -44.83032227 113.77368164 C-44.90027674 120.89489182 -44.95528227 128.01611527 -45.00207233 135.13751221 C-45.0373587 140.43090755 -45.0870315 145.72404234 -45.14347839 151.01725769 C-45.17736738 154.37751012 -45.20141384 157.73774519 -45.22012329 161.09811401 C-45.2287402 162.51376386 -45.24011355 163.92940061 -45.25473022 165.34500122 C-45.32568408 172.93612568 -44.9565781 180.39337842 -44.14355469 187.93530273 C-44.06372849 188.68012909 -43.98390228 189.42495544 -43.9016571 190.19235229 C-42.4529382 202.50859567 -38.48427579 212.03272118 -28.92089844 220.09155273 C-16.14373064 229.49726617 -2.00595097 230.69383831 13.34472656 230.81811523 C14.84222386 230.83704622 16.33971139 230.85676316 17.83718872 230.87721252 C21.80862858 230.92892283 25.78009799 230.96881092 29.75170135 231.00555038 C33.03239747 231.03699063 36.31301516 231.07439374 39.59364891 231.11170483 C47.59656253 231.20244707 55.59953187 231.28045512 63.60266685 231.34875774 C67.98842332 231.38622585 72.37409545 231.42810912 76.75976562 231.47485352 C81.19996841 231.52144812 85.64004994 231.55747437 90.08044434 231.57928467 C91.54246022 231.58726103 93.00446397 231.59820646 94.46643066 231.61260986 C102.21300736 231.68258818 109.8241482 231.33089062 117.52050781 230.49780273 C118.26396454 230.41745285 119.00742126 230.33710297 119.77340698 230.25431824 C132.24722732 228.7785311 142.12398537 224.58085702 150.20410156 214.71655273 C159.1166477 201.91714619 160.24813154 187.84926082 160.36816406 172.75952148 C160.38709183 171.23679645 160.4068086 169.71408105 160.42726135 168.19137573 C160.47895953 164.15524131 160.51884961 160.11907781 160.55559921 156.08278275 C160.58702971 152.7511753 160.62442756 149.41964525 160.66175365 146.08809948 C160.75226998 137.98771747 160.83026233 129.88728111 160.89880657 121.78668499 C160.93595685 117.40745141 160.97771297 113.02831002 161.02490234 108.64916992 C161.07115187 104.31233014 161.10734995 99.97561191 161.1293335 95.63858032 C161.13730043 94.22805696 161.14823733 92.81754611 161.16265869 91.40707397 C161.23376754 83.83585909 160.8624349 76.39882705 160.05175781 68.87670898 C159.97193161 68.13163589 159.89210541 67.38656281 159.80986023 66.61891174 C158.361629 54.30133224 154.39356329 44.77629806 144.82910156 36.71655273 C132.05200453 27.31089139 117.91410313 26.1141396 102.56347656 25.98999023 C101.06575046 25.9711015 99.56803404 25.9514304 98.07032776 25.93103027 C94.09877949 25.87942823 90.12720003 25.83962128 86.15549088 25.80275726 C82.87780131 25.77106255 79.60019955 25.73291309 76.32257938 25.69479561 C66.19991223 25.57744465 56.07712276 25.48457239 45.95410156 25.40405273 C44.16350311 25.38955078 44.16350311 25.38955078 42.33673096 25.37475586 C35.98001372 25.32538053 29.62349369 25.29211879 23.26660156 25.27905273 C22.53993286 25.2763739 21.81326416 25.27369507 21.0645752 25.27093506 C1.99910342 25.21632359 -18.73314117 25.26912612 -32.85839844 40.09155273 Z " fill="#FFFFFF" transform="translate(70.0458984375,-0.404052734375)"/>
<path d="M0 0 C0 0.66 0 1.32 0 2 C0.66 2 1.32 2 2 2 C16.1687612 17.72732493 19.88503126 34.81847188 19.13916016 55.41259766 C18.16344395 73.55407204 10.65288 89.99245702 -2.5625 102.5625 C-17.97645241 115.40247201 -35.32273425 119.16140409 -55 118 C-72.76146622 116.27667128 -89.09645176 109.84381858 -101.4375 96.5625 C-110.54570591 85.42599614 -116.64632795 71.56686766 -117 57 C-117.0928125 55.02966797 -117.0928125 55.02966797 -117.1875 53.01953125 C-117.87261869 32.89936846 -112.34157343 15.93478383 -98.72265625 0.84765625 C-87.19051083 -11.21394204 -70.28078157 -17.86933041 -53.70703125 -18.96875 C-33.4249594 -19.20288647 -15.02081061 -14.46689786 0 0 Z M-81 24 C-88.16057958 33.172147 -91.11571098 44.45141269 -90 56 C-88.1376169 68.4618721 -80.54755402 77.83901699 -70.8125 85.5 C-62.09844281 91.6136172 -51.04134679 91.93257205 -40.78515625 90.57421875 C-28.78664587 88.29212168 -21.25266647 81.59121688 -14 72 C-7.20229228 61.89621111 -7.06743883 50.77219498 -9.22265625 39.06640625 C-11.85017462 28.70157246 -17.84452124 20.82770783 -26.93359375 15.17578125 C-46.58724323 4.83570834 -65.74317824 7.77205726 -81 24 Z " fill="#FFFFFF" transform="translate(177,78)"/>
<path d="M0 0 C4.47471027 5.39136251 4.62618575 12.24558801 4.375 18.97265625 C3.74764392 24.03724964 2.43305767 26.99389716 -1.625 30.33984375 C-8.10687955 34.35050672 -15.06733209 33.13830798 -22.18359375 31.49609375 C-25.58300966 30.33371283 -27.18013833 28.77829128 -29.4375 26 C-32.49212282 19.75908958 -31.67496143 12.55970741 -29.8125 6.0625 C-28.34938678 2.2045741 -26.62804724 0.12373497 -23 -2 C-15.82472532 -4.22163316 -6.46148052 -4.09270966 0 0 Z " fill="#FFFFFF" transform="translate(210,45)"/>
</svg>
