<?xml version="1.0" encoding="UTF-8"?>
<svg version="1.1" xmlns="http://www.w3.org/2000/svg" width="267" height="267">
<path d="M0 0 C0.6869696 -0.00100708 1.37393921 -0.00201416 2.08172607 -0.00305176 C34.80975906 0.02929854 60.5859195 8.41309288 84.125 31.625 C105.73596186 53.60593478 113.63161252 77.46262418 113.55566406 108.06713867 C113.32905327 130.40979025 108.51360061 149.0255298 97.56640625 168.4609375 C96.22135185 171.02953426 96.22135185 171.02953426 96.49354553 173.09901428 C97.78506531 176.25066953 99.86300258 178.07205352 102.28686523 180.45483398 C102.79764114 180.9612291 103.30841705 181.46762421 103.83467102 181.98936462 C104.94502759 183.08831022 106.05883623 184.18377632 107.17565727 185.27615166 C108.95412104 187.01617739 110.72291621 188.76552997 112.48951721 190.51759338 C116.8871874 194.87521774 121.30063461 199.21674797 125.71429443 203.5581665 C129.4324175 207.21649221 133.14392798 210.88130008 136.84733772 214.55452156 C138.57022716 216.25829164 140.3020576 217.95257607 142.03453064 219.64659119 C163.21334766 240.52344096 163.21334766 240.52344096 164.6953125 251.65625 C164.18938232 257.07982148 162.59304936 260.31654761 158.45703125 263.921875 C154.78035 266.26722514 151.6834903 266.81166788 147.375 266.25 C140.84493194 264.4016587 135.85453603 260.16788462 130.81469727 255.81567383 C130.20297196 255.28873586 129.59124666 254.76179789 128.96098423 254.2188921 C123.24328033 249.23426379 117.88679203 243.94310586 112.60261345 238.50568199 C110.97278033 236.83064189 109.33415547 235.16463995 107.69300842 233.50068665 C103.03993775 228.78140493 98.39677105 224.05264597 93.77270508 219.30493164 C90.91644703 216.37354537 88.04588028 213.45685024 85.16552925 210.54914284 C84.07827323 209.44579978 82.99659366 208.33693213 81.92072868 207.22247887 C80.42795813 205.67694686 78.91772856 204.150759 77.40209961 202.62768555 C76.54942001 201.75564987 75.69674042 200.8836142 74.81822205 199.9851532 C72.51834843 197.97421923 72.51834843 197.97421923 69.76124573 198.37190247 C66.49466727 199.57394736 63.5650685 201.26446159 60.5625 203 C49.6081107 209.07579516 37.79800654 212.60380807 25.375 214.25 C24.58996094 214.36085937 23.80492188 214.47171875 22.99609375 214.5859375 C-4.71368815 217.79489503 -33.51131868 215.09885176 -56.25 197.875 C-61.21626885 193.86067418 -65.94997267 189.59762313 -70.625 185.25 C-71.29273437 184.64800781 -71.96046875 184.04601562 -72.6484375 183.42578125 C-87.7715575 169.19770305 -96.71435522 151.4405519 -100.625 131.25 C-100.85058594 130.095 -101.07617188 128.94 -101.30859375 127.75 C-106.15559975 97.79884566 -101.32547941 69.23674486 -83.60546875 44.421875 C-62.16360051 17.21178617 -35.15797281 0.03564123 0 0 Z M-64.625 52.25 C-80.36756103 70.89625221 -86.13780759 94.3268336 -84.625 118.25 C-82.67013166 135.48061551 -74.65797236 151.105545 -63.625 164.25 C-62.59632812 165.53970703 -62.59632812 165.53970703 -61.546875 166.85546875 C-46.02309675 185.39775944 -20.24334738 197.04885918 3.5234375 199.46875 C26.02589855 200.47257726 51.08933569 188.10251963 67.34375 173.25390625 C83.66666887 157.52065804 95.24091506 134.91194961 97.375 112.25 C97.48134766 111.15751953 97.48134766 111.15751953 97.58984375 110.04296875 C98.67535984 86.6392418 85.52977174 63.03566605 70.375 46.25 C69.55515625 45.33605469 68.7353125 44.42210938 67.890625 43.48046875 C51.85288546 26.51747501 31.75336209 17.55664205 8.34204102 16.8449707 C-21.97575062 16.49858583 -44.55603663 30.07130759 -64.625 52.25 Z " fill="#FFFFFF" transform="translate(102.625,0.75)"/>
</svg>
