<?xml version="1.0" standalone="no"?>
<!DOCTYPE svg PUBLIC "-//W3C//DTD SVG 20010904//EN"
 "http://www.w3.org/TR/2001/REC-SVG-20010904/DTD/svg10.dtd">
<svg version="1.0" xmlns="http://www.w3.org/2000/svg"
 width="64.000000pt" height="64.000000pt" viewBox="0 0 64.000000 64.000000"
 preserveAspectRatio="xMidYMid meet">

<g transform="translate(0.000000,64.000000) scale(0.100000,-0.100000)"
fill="#000000" stroke="none">
<path d="M174 627 c-77 -30 -139 -95 -164 -171 -16 -48 -9 -140 14 -187 22
-47 77 -102 125 -126 54 -27 173 -25 227 4 l41 21 84 -84 c83 -83 104 -95 127
-72 23 23 11 44 -72 127 l-84 84 21 41 c29 54 31 173 4 227 -24 48 -79 103
-126 125 -44 22 -155 28 -197 11z m150 -38 c80 -22 156 -125 156 -210 0 -46
-29 -113 -67 -151 -37 -38 -105 -68 -153 -68 -48 0 -116 30 -153 68 -86 88
-88 210 -4 299 62 65 135 86 221 62z"/>
</g>
</svg>
